<svg xmlns="http://www.w3.org/2000/svg" viewBox="0 0 1600 900" role="img" aria-labelledby="title desc">
  <title id="title">Native-space overlay figure placeholder</title>
  <desc id="desc">Placeholder for a transformed corridor overlay on participant diffusion space.</desc>
  <rect width="1600" height="900" fill="#eef2f3"/>
  <rect x="48" y="48" width="1504" height="804" rx="32" fill="#fbfaf7" stroke="#9aabba" stroke-width="4" stroke-dasharray="16 14"/>
  <text x="100" y="125" fill="#d9651a" font-family="Arial, sans-serif" font-size="28" font-weight="700" letter-spacing="5">FIGURE PLACEHOLDER 05</text>
  <text x="100" y="205" fill="#14233b" font-family="Helvetica, Arial, sans-serif" font-size="58">Verify the corridor in native diffusion space</text>
  <text x="100" y="256" fill="#586c84" font-family="Arial, sans-serif" font-size="25">Recommended: axial, coronal, and sagittal overlay views for one example participant</text>
  <g transform="translate(100 355)" font-family="Arial, sans-serif">
    <g fill="#fff" stroke="#dce3e9" stroke-width="3"><rect width="430" height="330" rx="24"/><rect x="485" width="430" height="330" rx="24"/><rect x="970" width="430" height="330" rx="24"/></g>
    <g fill="#14233b" font-size="24" font-weight="700"><text x="28" y="46">Axial</text><text x="513" y="46">Coronal</text><text x="998" y="46">Sagittal</text></g>
    <g transform="translate(65 75)"><ellipse cx="150" cy="115" rx="135" ry="100" fill="#c9cfd5"/><ellipse cx="150" cy="115" rx="100" ry="72" fill="#e5e7ea"/><path d="M92 143c35-79 87-80 122-26" fill="none" stroke="#f59e0b" stroke-width="26" opacity=".78"/></g>
    <g transform="translate(550 75)"><ellipse cx="150" cy="115" rx="125" ry="108" fill="#c9cfd5"/><ellipse cx="150" cy="115" rx="88" ry="78" fill="#e5e7ea"/><path d="M98 162c24-92 76-105 112-36" fill="none" stroke="#f59e0b" stroke-width="26" opacity=".78"/></g>
    <g transform="translate(1035 75)"><ellipse cx="150" cy="115" rx="122" ry="104" fill="#c9cfd5"/><ellipse cx="150" cy="115" rx="88" ry="75" fill="#e5e7ea"/><path d="M80 144c50-85 105-90 150-34" fill="none" stroke="#f59e0b" stroke-width="26" opacity=".78"/></g>
    <g fill="#586c84" font-size="19"><text x="28" y="304">Check left/right orientation</text><text x="513" y="304">Check seed and target contact</text><text x="998" y="304">Check anatomical trajectory</text></g>
  </g>
  <text x="100" y="805" fill="#75879a" font-family="Arial, sans-serif" font-size="20">Replacement filename: 05-native-space-overlay.svg</text>
</svg>
